<?xml version="1.0" standalone="no"?>
<!DOCTYPE svg PUBLIC "-//W3C//DTD SVG 20010904//EN"
 "http://www.w3.org/TR/2001/REC-SVG-20010904/DTD/svg10.dtd">
<svg version="1.0" xmlns="http://www.w3.org/2000/svg"
 width="63.000000pt" height="62.000000pt" viewBox="0 0 63.000000 62.000000"
 preserveAspectRatio="xMidYMid meet">

<g transform="translate(0.000000,62.000000) scale(0.100000,-0.100000)"
fill="#000000" stroke="none">
<path d="M240 578 c-35 -18 -50 -34 -70 -75 l-25 -51 -65 -4 -65 -3 0 -215 0
-215 300 0 300 0 0 215 0 215 -66 3 c-64 3 -67 4 -72 31 -13 62 -90 121 -159
121 -19 0 -54 -10 -78 -22z m130 -43 c25 -13 60 -60 60 -80 0 -3 -52 -5 -115
-5 -63 0 -115 2 -115 5 0 4 7 19 15 35 28 55 98 75 155 45z"/>
</g>
</svg>
