<?xml version="1.0" standalone="no"?>
<!DOCTYPE svg PUBLIC "-//W3C//DTD SVG 20010904//EN"
 "http://www.w3.org/TR/2001/REC-SVG-20010904/DTD/svg10.dtd">
<svg version="1.0" xmlns="http://www.w3.org/2000/svg"
 width="49.000000pt" height="68.000000pt" viewBox="0 0 49.000000 68.000000"
 preserveAspectRatio="xMidYMid meet">

<g transform="translate(0.000000,68.000000) scale(0.100000,-0.100000)"
fill="#000000" stroke="none">
<path d="M145 642 c-78 -37 -125 -115 -125 -209 0 -68 27 -129 76 -172 19 -17
34 -38 34 -46 0 -9 13 -30 29 -46 26 -25 37 -29 88 -29 69 0 97 16 113 65 6
19 24 44 40 55 42 30 80 113 80 176 0 69 -40 145 -98 188 -39 27 -53 31 -120
34 -59 2 -87 -2 -117 -16z"/>
<path d="M147 92 c-45 -49 -3 -82 103 -82 82 0 120 16 120 50 0 35 -38 50
-126 50 -66 0 -84 -3 -97 -18z"/>
</g>
</svg>
