<?xml version="1.0" standalone="no"?>
<!DOCTYPE svg PUBLIC "-//W3C//DTD SVG 20010904//EN"
 "http://www.w3.org/TR/2001/REC-SVG-20010904/DTD/svg10.dtd">
<svg version="1.0" xmlns="http://www.w3.org/2000/svg"
 width="71.000000pt" height="54.000000pt" viewBox="0 0 71.000000 54.000000"
 preserveAspectRatio="xMidYMid meet">

<g transform="translate(0.000000,54.000000) scale(0.100000,-0.100000)"
fill="#000000" stroke="none">
<path d="M125 519 c-41 -23 -45 -38 -45 -174 0 -186 -18 -175 277 -175 298 0
278 -12 278 174 0 192 17 180 -268 183 -150 2 -228 -1 -242 -8z m459 -45 c13
-12 16 -39 16 -126 0 -158 16 -148 -245 -148 -151 0 -214 3 -223 12 -17 17
-17 249 0 266 9 9 73 12 224 12 180 0 215 -2 228 -16z"/>
<path d="M47 65 c-15 -25 -27 -48 -27 -50 0 -3 151 -5 335 -5 184 0 335 3 335
6 0 3 -12 25 -26 50 l-26 44 -282 0 -281 0 -28 -45z"/>
</g>
</svg>
