<?xml version="1.0" standalone="no"?>
<!DOCTYPE svg PUBLIC "-//W3C//DTD SVG 20010904//EN"
 "http://www.w3.org/TR/2001/REC-SVG-20010904/DTD/svg10.dtd">
<svg version="1.0" xmlns="http://www.w3.org/2000/svg"
 width="77.000000pt" height="77.000000pt" viewBox="0 0 77.000000 77.000000"
 preserveAspectRatio="xMidYMid meet">

<g transform="translate(0.000000,77.000000) scale(0.100000,-0.100000)"
fill="#000000" stroke="none">
<path d="M72 696 c-79 -81 -82 -91 -58 -182 54 -203 298 -446 501 -498 92 -25
100 -23 172 46 77 74 89 94 73 113 -16 19 -181 115 -197 115 -7 0 -30 -16 -51
-35 l-39 -34 -40 20 c-52 25 -179 156 -199 204 -15 37 -15 38 15 69 17 18 31
37 31 44 0 17 -78 173 -98 195 -8 9 -20 17 -27 17 -6 0 -44 -33 -83 -74z"/>
</g>
</svg>
